<svg width="126" height="100" viewBox="0 0 126 100" fill="none" xmlns="http://www.w3.org/2000/svg">
<path d="M93.6601 34.56H91.2801V16.11C91.2801 12.6502 89.9057 9.33222 87.4593 6.8858C85.0128 4.43939 81.6948 3.065 78.235 3.065C74.7753 3.065 71.4573 4.43939 69.0109 6.8858C66.5645 9.33222 65.1901 12.6502 65.1901 16.11V34.56H62.8201V16.11C62.8201 12.0203 64.4447 8.09823 67.3365 5.20642C70.2283 2.31461 74.1504 0.690002 78.2401 0.690002C82.3297 0.690002 86.2518 2.31461 89.1436 5.20642C92.0355 8.09823 93.6601 12.0203 93.6601 16.11V34.56Z" fill="#294159"/>
<path d="M110.23 26.84L55.8401 26.59C54.8521 26.5874 53.8788 26.8289 53.0065 27.2929C52.1342 27.757 51.3901 28.4292 50.8401 29.25V98.18C58.7894 97.7533 66.6508 96.3047 74.2301 93.87C79.4091 92.2247 84.4294 90.1162 89.2301 87.57C93.1101 85.51 97.9301 82.89 99.3001 78.79L114.8 32.53C115.71 29.6 113.54 26.85 110.23 26.84Z" fill="#294159"/>
<path d="M42.25 25.83C42.3 27.19 42.31 28.55 42.31 29.91C42.31 33.34 42.62 51.07 42.57 56.49C42.51 63.23 42.41 70.18 40.29 76.66C39.5016 79.478 37.7814 81.9456 35.41 83.66C32.84 85.3 28.84 84.91 25.97 84.34C23.5764 83.8713 21.2649 83.0525 19.11 81.91C16.0389 80.2728 13.4106 77.9155 11.45 75.04C10.7806 74.0558 10.2111 73.0073 9.75 71.91C12.42 88.6 26.85 98.75 43.13 99.24C53.2579 99.5441 63.3484 97.8765 72.84 94.33C77.6965 92.5142 82.3542 90.2055 86.74 87.44C90.3 85.19 94.74 82.33 95.59 77.89L105.52 27.78C105.667 27.0382 105.649 26.273 105.466 25.5391C105.284 24.8052 104.941 24.1206 104.464 23.5342C103.986 22.9478 103.385 22.4739 102.704 22.1465C102.022 21.8191 101.276 21.6462 100.52 21.64H47.31C46.1106 21.64 44.9489 22.0585 44.0251 22.8234C43.1014 23.5883 42.4736 24.6517 42.25 25.83Z" fill="#67AD53"/>
<path d="M68.6799 86.34L68.0699 85.18L63.7099 76.37C62.7099 76.95 61.5399 77.59 60.0299 78.37C57.6496 79.5442 55.1782 80.5241 52.6399 81.3C47.5869 82.9392 42.312 83.7925 36.9999 83.83C33.1519 83.8404 29.3214 83.3119 25.6199 82.26C15.3199 79.26 6.10992 71.54 2.16992 62.48L5.8399 60.88C6.09051 61.1721 6.36478 61.443 6.65991 61.69L7.1199 62.11C8.59132 63.5329 10.2221 64.7812 11.9799 65.83C16.6811 68.4965 22.0165 69.8407 27.4199 69.72C28.6099 69.72 29.8199 69.66 31.0199 69.55C36.7334 68.9523 42.2341 67.0538 47.0999 64L47.5899 63.67L34.6599 62.34L34.3699 60.75C34.3024 60.2988 34.3866 59.8381 34.6092 59.4399C34.8318 59.0418 35.1802 58.7287 35.5999 58.55L77.5199 40.1H78.8999L79.5499 40.85C79.7477 41.0812 79.8902 41.3545 79.9665 41.6491C80.0427 41.9437 80.0507 42.2518 79.9899 42.55L71.6399 86.34H69.9299H68.6799Z" fill="#294159"/>
<path d="M78 42.05C78.0101 42.0499 78.0201 42.052 78.0293 42.0561C78.0385 42.0602 78.0467 42.0663 78.0534 42.0739C78.06 42.0815 78.0649 42.0904 78.0678 42.1001C78.0707 42.1098 78.0714 42.12 78.07 42.13L70.07 84.29C70.0606 84.2945 70.0504 84.2968 70.04 84.2968C70.0296 84.2968 70.0194 84.2945 70.01 84.29C70.0013 84.2965 69.9908 84.3 69.98 84.3C69.9692 84.3 69.9586 84.2965 69.95 84.29L64.49 73.29C64.68 73.67 59.63 76.35 59.21 76.56C56.9233 77.69 54.5488 78.6331 52.11 79.38C47.2637 80.9549 42.2055 81.7811 37.11 81.83H37.04C33.4051 81.8309 29.7876 81.3295 26.29 80.34C17.04 77.68 8.03997 70.68 4.12997 61.68C4.59409 62.3925 5.17173 63.0242 5.83997 63.55C7.42579 65.0775 9.18044 66.4195 11.07 67.55C16.084 70.3986 21.7745 71.8394 27.54 71.72C28.81 71.72 30.08 71.66 31.32 71.54C37.3661 70.9052 43.1839 68.8826 48.32 65.63C49.8716 64.7224 51.2305 63.5198 52.32 62.09L36.53 60.47C36.517 60.4648 36.5058 60.4558 36.498 60.4442C36.4901 60.4327 36.486 60.419 36.486 60.405C36.486 60.391 36.4901 60.3773 36.498 60.3658C36.5058 60.3542 36.517 60.3452 36.53 60.34L78.08 42.06M78.08 38.06H77.24L76.44 38.41L34.89 56.69C34.0695 57.0533 33.3921 57.6775 32.9631 58.4657C32.5341 59.2538 32.3776 60.1616 32.5179 61.0479C32.6581 61.9341 33.0874 62.7492 33.7388 63.3663C34.3903 63.9834 35.2274 64.3679 36.12 64.46L41.03 64.96C37.829 66.3265 34.4414 67.2063 30.98 67.57C29.84 67.67 28.69 67.73 27.56 67.73C22.5201 67.8491 17.5416 66.6053 13.15 64.13C11.5228 63.16 10.0129 62.0057 8.64996 60.69C8.49996 60.54 8.31997 60.38 8.12997 60.21C7.93997 60.04 7.67997 59.8 7.58997 59.7C7.68368 59.8192 7.76104 59.9503 7.81998 60.09L0.47998 63.28C4.64998 72.87 14.35 81.08 25.21 84.19C29.0608 85.2876 33.0458 85.8429 37.05 85.84H37C42.5131 85.7952 47.9868 84.9049 53.23 83.2C55.8719 82.3897 58.4437 81.3664 60.92 80.14C61.15 80.03 61.92 79.62 62.82 79.14L66.27 86.14C66.646 86.9019 67.2511 87.527 68.0003 87.9277C68.7495 88.3284 69.6054 88.4845 70.4478 88.3742C71.2903 88.264 72.0772 87.8928 72.698 87.3128C73.3189 86.7328 73.7427 85.973 73.91 85.14L81.91 42.98C82.0237 42.3913 82.0056 41.7847 81.857 41.2038C81.7084 40.6229 81.433 40.0822 81.0506 39.6204C80.6682 39.1586 80.1882 38.7873 79.6452 38.533C79.1021 38.2788 78.5096 38.148 77.91 38.15L78.08 38.06Z" fill="#F4F4F4"/>
<path d="M60.07 35.64C60.068 36.2428 59.8874 36.8315 59.5511 37.3318C59.2147 37.832 58.7377 38.2214 58.1802 38.4507C57.6227 38.68 57.0098 38.739 56.4188 38.6202C55.8278 38.5014 55.2853 38.2101 54.8598 37.7832C54.4342 37.3562 54.1447 36.8127 54.0279 36.2214C53.911 35.63 53.9719 35.0173 54.2031 34.4605C54.4342 33.9038 54.8252 33.4281 55.3265 33.0934C55.8279 32.7587 56.4171 32.58 57.0199 32.58C57.4232 32.5732 57.8237 32.6478 58.1975 32.7993C58.5712 32.9508 58.9106 33.1761 59.1954 33.4618C59.4801 33.7474 59.7043 34.0875 59.8545 34.4618C60.0048 34.8361 60.0781 35.2368 60.07 35.64Z" fill="#294159"/>
<path d="M57.0001 39.28C56.2782 39.28 55.5725 39.0659 54.9723 38.6648C54.372 38.2638 53.9042 37.6937 53.6279 37.0268C53.3517 36.3598 53.2794 35.6259 53.4202 34.9179C53.5611 34.2099 53.9087 33.5595 54.4192 33.049C54.9296 32.5386 55.58 32.191 56.288 32.0501C56.9961 31.9093 57.7299 31.9816 58.3969 32.2578C59.0638 32.5341 59.6339 33.0019 60.0349 33.6021C60.436 34.2024 60.6501 34.9081 60.6501 35.63C60.6501 36.598 60.2655 37.5264 59.581 38.2109C58.8965 38.8954 57.9681 39.28 57.0001 39.28ZM57.0001 33.17C56.5107 33.168 56.0318 33.3114 55.6241 33.5821C55.2164 33.8527 54.8982 34.2384 54.7101 34.6901C54.5219 35.1419 54.4721 35.6393 54.5671 36.1194C54.6621 36.5995 54.8975 37.0405 55.2436 37.3865C55.5896 37.7325 56.0306 37.968 56.5107 38.063C56.9908 38.158 57.4882 38.1082 57.9399 37.92C58.3917 37.7318 58.7774 37.4137 59.048 37.006C59.3187 36.5983 59.4621 36.1193 59.4601 35.63C59.4601 34.9775 59.2009 34.3518 58.7396 33.8905C58.2782 33.4291 57.6525 33.17 57.0001 33.17Z" fill="#294159"/>
<path d="M88.5399 35.64C88.5399 36.2456 88.3602 36.8376 88.0235 37.3411C87.6868 37.8445 87.2083 38.2367 86.6486 38.468C86.0889 38.6993 85.4731 38.7593 84.8793 38.6404C84.2854 38.5215 83.7402 38.2291 83.3126 37.8002C82.8851 37.3712 82.5944 36.8251 82.4775 36.2308C82.3606 35.6366 82.4226 35.021 82.6558 34.462C82.8889 33.9031 83.2826 33.4258 83.7872 33.0908C84.2917 32.7558 84.8843 32.578 85.4899 32.58C86.2997 32.5826 87.0755 32.9062 87.6472 33.4798C88.2189 34.0533 88.5399 34.8302 88.5399 35.64Z" fill="#294159"/>
<path d="M85.4901 39.28C84.7677 39.282 84.0611 39.0696 83.4595 38.6697C82.858 38.2699 82.3886 37.7005 82.1108 37.0337C81.833 36.367 81.7593 35.6327 81.899 34.924C82.0387 34.2154 82.3855 33.564 82.8956 33.0526C83.4056 32.5411 84.056 32.1925 84.7643 32.0508C85.4726 31.9092 86.207 31.9809 86.8746 32.2569C87.5421 32.5328 88.1127 33.0007 88.5142 33.6011C88.9157 34.2016 89.1301 34.9077 89.1301 35.63C89.1301 36.5963 88.7469 37.5232 88.0646 38.2074C87.3822 38.8916 86.4564 39.2773 85.4901 39.28ZM85.4901 33.17C85.0007 33.168 84.5218 33.3114 84.1141 33.5821C83.7063 33.8527 83.3882 34.2384 83.2 34.6901C83.0118 35.1419 82.9621 35.6393 83.0571 36.1194C83.1521 36.5995 83.3875 37.0405 83.7335 37.3865C84.0796 37.7325 84.5206 37.968 85.0007 38.063C85.4807 38.158 85.9782 38.1082 86.4299 37.92C86.8817 37.7318 87.2673 37.4137 87.538 37.006C87.8086 36.5983 87.9521 36.1193 87.9501 35.63C87.9501 34.9775 87.6909 34.3518 87.2296 33.8905C86.7682 33.4291 86.1425 33.17 85.4901 33.17Z" fill="#294159"/>
<path d="M86.6701 35.63H84.3001V17.18C84.3001 13.7202 82.9257 10.4022 80.4793 7.95578C78.0329 5.50937 74.7148 4.13501 71.2551 4.13501C67.7953 4.13501 64.4773 5.50937 62.0309 7.95578C59.5845 10.4022 58.2101 13.7202 58.2101 17.18V35.63H55.8301V17.18C55.8301 13.0904 57.4547 9.16824 60.3465 6.27643C63.2383 3.38462 67.1605 1.76001 71.2501 1.76001C75.3397 1.76001 79.2619 3.38462 82.1537 6.27643C85.0455 9.16824 86.6701 13.0904 86.6701 17.18V35.63Z" fill="#294159"/>
<path d="M104.86 15C104.86 15 119.23 17.82 119.86 34.45C120.49 51.08 109.2 62.9 109.2 62.9C109.2 62.9 126.7 49.7 125.91 29.2C125.12 8.70001 104.86 15 104.86 15Z" fill="#294159"/>
</svg>
